<svg xmlns="http://www.w3.org/2000/svg" version="1.1"
    xmlns:xlink="http://www.w3.org/1999/xlink" viewBox="0 0 64 64" style="enable-background:new 0 0 512 512" xml:space="preserve">
    <g transform="matrix(1.32,0,0,1.32,-10.243591918945313,-10.236801147460938)">
        <path fill="#4fbe9f" d="m32 25-7.93-13.75a4 4 0 0 0-1.5 1.49l-14 24.2a4.13 4.13 0 0 0 0 4.11l5.9 10.2A4.13 4.13 0 0 0 16 52.76z" opacity="1" data-original="#4fbe9f"></path>
        <path fill="#dcdfe2" d="M40.07 39H56a4.11 4.11 0 0 0-.55-2.06l-13.94-24.2A4.09 4.09 0 0 0 38 10.68H26.12a4.11 4.11 0 0 0-2.05.55z" opacity="1" data-original="#dcdfe2"></path>
        <path fill="#cad0d8" d="M40.07 39H56a4.11 4.11 0 0 0-.55-2.06l-.14-.24H38.73z" opacity="1" data-original="#cad0d8"></path>
        <path fill="#09816c" d="M56 39H23.89L16 52.75a4 4 0 0 0 2 .55h28a4.09 4.09 0 0 0 3.56-2.06L55.45 41a4.07 4.07 0 0 0 .55-2z" opacity="1" data-original="#09816c"></path>
    </g>
</svg>