<svg xmlns="http://www.w3.org/2000/svg" version="1.1"
    xmlns:xlink="http://www.w3.org/1999/xlink" viewBox="0 0 512 512" style="enable-background:new 0 0 512 512" xml:space="preserve">
    <g>
        <path d="M440.958 325.2H238.013l143.475 143.475c6.343 6.343 16.848 5.775 22.371-1.294 28.489-36.469 46.354-79.565 52.002-125.445 1.096-8.904-5.931-16.736-14.903-16.736z"></path>
        <path d="M191.193 320.807a15.002 15.002 0 0 1-4.394-10.607V125.806c0-9.189-8.199-16.292-17.271-14.828C73.346 126.504-.301 210.252.001 310.816c.332 110.61 90.664 200.903 201.273 201.183 43.152.109 84.268-13.253 118.561-38.105 7.445-5.396 8.238-16.208 1.736-22.709z"></path>
        <path d="M511.923 278.684C497.084 131.942 380.058 14.917 233.316.077c-8.85-.895-16.516 6.116-16.516 15.011V295.2h280.112c8.895 0 15.906-7.666 15.011-16.516z"></path>
    </g>
</svg>